<svg xmlns="http://www.w3.org/2000/svg" xmlns:xlink="http://www.w3.org/1999/xlink" width="1089.474" height="996.158" viewBox="0 0 1089.474 996.158">
  <defs>
    <linearGradient id="linear-gradient" x1="0.5" y1="1" x2="0.5" gradientUnits="objectBoundingBox">
      <stop offset="0" stop-color="gray" stop-opacity="0.251"/>
      <stop offset="0.535" stop-color="gray" stop-opacity="0.122"/>
      <stop offset="1" stop-color="gray" stop-opacity="0.102"/>
    </linearGradient>
  </defs>
  <g id="Group_20" data-name="Group 20" transform="translate(18.686 2.5)">
    <path id="Path_308" data-name="Path 308" d="M1227.158,581.579a498.226,498.226,0,0,1-6.549,80.763c-.354,2.206-.735,4.411-1.13,6.617-28.373,159.525-133.085,292.664-275.019,360.275-.681.327-1.375.653-2.07.98q-8.312,3.921-16.814,7.543c-1.525.64-3.036,1.28-4.575,1.906a491.541,491.541,0,0,1-95.208,28.55c-1.443.286-2.886.545-4.33.8a497.328,497.328,0,0,1-89.517,8.142h-1.375q-4,0-7.992-.1c-.5,0-1.007,0-1.511-.027a497.134,497.134,0,0,1-89.1-9.885c-1.43-.3-2.859-.6-4.289-.912a489.53,489.53,0,0,1-77.36-23.281c-1.538-.585-3.05-1.2-4.574-1.824q-8.5-3.41-16.814-7.161c-.694-.313-1.389-.626-2.069-.939-146.073-66.345-254.27-201.5-283.188-364.074-.395-2.206-.776-4.411-1.13-6.617a501.165,501.165,0,0,1-.055-161.172c.49-3.063,1.021-6.14,1.593-9.19a488.649,488.649,0,0,1,15.929-63.227q1.021-3.165,2.083-6.331C328.4,226.8,513.552,86,731.579,86c243.106,0,445.327,175.059,487.492,405.98.572,3.05,1.1,6.127,1.593,9.19A498.469,498.469,0,0,1,1227.158,581.579Z" transform="translate(-204.962 -86)" fill="#656eff" stroke="#000" stroke-width="5"/>
    <path id="Path_309" data-name="Path 309" d="M553.261,232.468h-2.643c-.538,0-1.87-2.113-1.87-2.719v-2.456c0-1.917-2.168-7.174-4.085-7.174s-4.084,5.258-4.084,7.174v2.456c0,.864-.667,2.719-1.483,2.719h-2.643c-1.917,0-7.174,1.487-7.174,3.4s5.258,3.4,7.174,3.4h3.152c1,0,.974,1.027.974,1.55V244.1c0,1.917,2.168,7.174,4.084,7.174s4.085-5.258,4.085-7.174v-3.276c0-.434.877-1.55,1.361-1.55h3.152c1.916,0,7.174-1.487,7.174-3.4S555.178,232.468,553.261,232.468Z" transform="translate(-81.841 -182.92)" fill="#62e1ff" stroke="#000" stroke-width="5"/>
    <path id="Path_313" data-name="Path 313" d="M719.863,261.275h-1.684c-.344,0-1.346-1.333-1.346-1.719V257.99c0-1.221-1.5-4.572-2.723-4.572s-2.723,3.351-2.723,4.572v1.565c0,.551-.031,1.719-.551,1.719h-1.685c-1.221,0-4.572.821-4.572,2.042s3.351,2.042,4.572,2.042h2.009c.636,0,.226.922.226,1.255V268.7c0,1.221,1.5,4.572,2.723,4.572s2.723-3.35,2.723-4.572v-2.086c0-.277.713-1.255,1.021-1.255h2.009c1.222,0,4.572-.821,4.572-2.042S721.084,261.275,719.863,261.275Z" transform="translate(-66.941 -59.694)" fill="#004386" stroke="#000" stroke-width="5"/>
    <circle id="Ellipse_65" data-name="Ellipse 65" cx="10.211" cy="10.211" r="10.211" transform="translate(507.61 153.673)" fill="#b9e0ff" stroke="#000" stroke-width="5"/>
    <circle id="Ellipse_66" data-name="Ellipse 66" cx="3.404" cy="3.404" r="3.404" transform="translate(593.781 297.515)" fill="#7ec8f8" stroke="#000" stroke-width="5"/>
    <circle id="Ellipse_67" data-name="Ellipse 67" cx="9.474" cy="9.474" r="9.474" transform="translate(228.696 134.182)" fill="#b9e0ff" stroke="#000" stroke-width="5"/>
    <circle id="Ellipse_68" data-name="Ellipse 68" cx="4.737" cy="4.737" r="4.737" transform="translate(141.176 228.942)" stroke="#000" stroke-width="5"/>
    <rect id="Rectangle_77" data-name="Rectangle 77" width="5.446" height="85.773" transform="translate(475.293 390.745)" stroke="#000" stroke-width="5"/>
    <rect id="Rectangle_78" data-name="Rectangle 78" width="5.446" height="85.773" transform="translate(571.83 391.85)" stroke="#000" stroke-width="5"/>
    <circle id="Ellipse_70" data-name="Ellipse 70" cx="8.85" cy="8.85" r="8.85" transform="translate(135.697 431.734)" fill="#82a9ff" stroke="#000" stroke-width="5"/>
    <circle id="Ellipse_75" data-name="Ellipse 75" cx="5.049" cy="5.049" r="5.049" transform="translate(332.121 163.461)" fill="#0d47a1" stroke="#000" stroke-width="5"/>
    <circle id="Ellipse_76" data-name="Ellipse 76" cx="10.211" cy="10.211" r="10.211" transform="translate(433.335 272.81)" fill="#b9e0ff" stroke="#000" stroke-width="5"/>
    <path id="Path_318" data-name="Path 318" d="M470.4,458.046v63.238H296.3V458.046l34.746-18.584,102.307-3.378Z" transform="translate(142.768 157.636)" fill="#e0e0e0" stroke="#000" stroke-width="5"/>
    <path id="Path_319" data-name="Path 319" d="M883.631,632.442c-.327,11.981-4.221,23.431-8.863,34.554-.681,1.634-1.375,3.254-2.07,4.86q-1.083,2.451-2.165,4.9c-3.785,8.55-7.651,17.223-13.614,24.425-.341.409-.681.817-1.035,1.212a42.453,42.453,0,0,1-4.574,4.425,31.292,31.292,0,0,1-18.176,7.72c-12.988.681-24.248-8.373-34.078-16.909q-17.583-15.235-35.167-30.511-6.045-5.228-12.09-10.484c-.858-.735-1.715-1.484-2.573-2.233V820.858h-3.009l1.8,28.2,4.326,58.7a500.727,500.727,0,0,1-89.854,7.821l-2.71-66.426-.708-19.1-.34-9.19h-2.8l-.245,5-1.1,23.3-3.392,66.426a499.791,499.791,0,0,1-89.366-9.7l5.413-56.727,1.8-28.292h-3.188V651.707a147.457,147.457,0,0,1-17.318,19.115c-12.335,11.573-26.386,21.634-40.2,31.437-8.387,5.949-17.931,12.09-27.693,14.445a35.825,35.825,0,0,1-4.574.8,27.775,27.775,0,0,1-12.73-1.375,25.394,25.394,0,0,1-4.085-1.879c-.721-.4-1.4-.817-2.069-1.266-10.2-6.957-15.562-20.3-19.769-32.431-5.092-14.7-10.266-30.1-8.1-45.514,1.321-9.326,5.214-17.89,10.089-26.018,3.308-5.514,7.066-10.824,10.783-16.025,1.784-2.491,3.935-5.187,6.78-5.95h.014l.2-.041a5.406,5.406,0,0,1,1.048-.149,8.311,8.311,0,0,1,1.021.027c2.845.34,5.255,2.614,7.311,4.724l9.5,9.789,4.575,4.7c.245.259.49.518.749.776,2.015,2.07,4.016,4.139,6.031,6.209,3.935-6.794,7.9-13.629,12.077-20.313,8.5-13.615,17.89-26.6,29.694-37.4a98.593,98.593,0,0,1,19.347-13.887,81.3,81.3,0,0,1,19.238-7.611c7.733-1.933,13.492-2.818,17.44-1.429,3.1,1.089,5.092,3.608,6.031,8.142a.406.406,0,0,1,.027.136,38.087,38.087,0,0,1,.627,7.284c0,1.511,0,3.022-.014,4.547,0,0,34.507,21.212,66.849,21.212s62.519-21.212,62.519-21.212c-.123-3.921-.231-8.223-.027-11.831.041-.871.109-1.7.19-2.478a10.274,10.274,0,0,1,1.47-5.078,6.436,6.436,0,0,1,5.024-1.879c5.964-.082,14.582,3.88,18.8,5.46a123.757,123.757,0,0,1,17.182,8.005c26.6,14.895,47.951,39.415,57.754,68.374a26.622,26.622,0,0,1,5.038-9.816,30.384,30.384,0,0,1,5.4-5.256,33.161,33.161,0,0,1,10.81-5.446,30.533,30.533,0,0,1,8.413-1.293,26.968,26.968,0,0,1,4.574.3,25.853,25.853,0,0,1,7.094,2.083,30.741,30.741,0,0,1,9.721,7.134c.735.79,1.415,1.606,2.069,2.45a51.934,51.934,0,0,1,8.864,20.532C884.263,627.208,883.729,628.988,883.631,632.442Z" transform="translate(-130.645 74.955)" fill="#fff" stroke="#000" stroke-width="5"/>
    <path id="Path_320" data-name="Path 320" d="M719.645,479.961H702.221c-10.262-36.288-42.191-65.631-80.014-65.631s-69.751,29.343-80.013,65.631H525.208V517.6h14.531c6.258,39.47,40.793,65.631,82.468,65.631s76.211-26.161,82.468-65.631h14.97Z" transform="translate(-95.795 32.685)" fill="#fff" stroke="#000" stroke-width="5"/>
    <circle id="Ellipse_77" data-name="Ellipse 77" cx="67.562" cy="67.562" r="67.562" transform="translate(458.369 470.178)" fill="#f7b228" stroke="#000" stroke-width="5"/>
    <path id="Path_322" data-name="Path 322" d="M767.567,381.845a15.369,15.369,0,0,1-2.9,9.018,14.928,14.928,0,0,1-3.322,3.373.758.758,0,0,1-.122.1l.327,540.621c-5.542,2.643-11.552,4.511-17.221,6.953l.08-546.981a15.451,15.451,0,0,1-6.208-18.608,15.17,15.17,0,0,1,29.367,5.529Z" transform="translate(-37.668 15.388)" fill="#f1f8f8" stroke="#000" stroke-width="5"/>
    <path id="Path_323" data-name="Path 323" d="M1099.541,483.7c0,27.555-2.7,50.5-7.928,70.4C979.384,417.869,867.158,721.93,754.93,564.465V403.293C867.179,560.788,979.429,256.579,1091.678,393A586.291,586.291,0,0,1,1099.541,483.7Z" transform="translate(-31.252 11.877)" fill="#0dffa4" stroke="#000" stroke-width="5"/>
    <path id="Path_325" data-name="Path 325" d="M476.9,381.674a15.008,15.008,0,0,1-5.133,11.355,13.963,13.963,0,0,1-2.11,1.579V939.745q-8.5-3.41-16.814-7.161V394.023a.751.751,0,0,1-.123-.1,14.855,14.855,0,0,1-3.322-3.335,15.2,15.2,0,1,1,27.5-8.918Z" transform="translate(-124.243 15.388)" fill="#f1f8f8" stroke="#000" stroke-width="5"/>
    <path id="Path_326" data-name="Path 326" d="M580.662,403.293V564.465c-112.318-157.567-224.635,147-336.954,10.1A598.01,598.01,0,0,1,236,483.7c0-27.428,2.612-50.406,7.644-70.388C355.983,550.405,468.323,245.7,580.662,403.293Z" transform="translate(-252.186 11.877)" fill="#0dffa4" stroke="#000" stroke-width="5"/>
    <path id="Path_327" data-name="Path 327" d="M622.565,446.271A67.451,67.451,0,0,1,676.5,473.153a67.564,67.564,0,1,0-116.4,66.434,67.575,67.575,0,0,1,62.467-93.316Z" transform="translate(-88.107 38.833)" stroke="#000" stroke-width="5" opacity="0.2"/>
    <path id="Path_328" data-name="Path 328" d="M425.762,343.468h-2.643c-.538,0-1.87-2.113-1.87-2.719v-2.456c0-1.917-2.168-7.174-4.084-7.174s-4.084,5.258-4.084,7.174v2.456c0,.864-.667,2.719-1.483,2.719h-2.643c-1.917,0-7.174,1.487-7.174,3.4s5.257,3.4,7.174,3.4h3.153c1,0,.974,1.027.974,1.55V355.1c0,1.917,2.168,7.174,4.084,7.174s4.084-5.258,4.084-7.174v-3.276c0-.434.877-1.55,1.361-1.55h3.153c1.916,0,7.174-1.487,7.174-3.4S427.678,343.468,425.762,343.468Z" transform="translate(-310.395 5.457)" fill="#62e1ff" stroke="#000" stroke-width="5"/>
    <circle id="Ellipse_79" data-name="Ellipse 79" cx="9.474" cy="9.474" r="9.474" transform="translate(838.41 413.393)" fill="#b9e0ff" stroke="#000" stroke-width="5"/>
    <circle id="Ellipse_81" data-name="Ellipse 81" cx="5.049" cy="5.049" r="5.049" transform="translate(316.377 301.145)" fill="#0d47a1" stroke="#000" stroke-width="5"/>
    <path id="Path_329" data-name="Path 329" d="M830.262,279.468h-2.644c-.538,0-1.87-2.113-1.87-2.719v-2.456c0-1.917-2.168-7.174-4.084-7.174s-4.084,5.258-4.084,7.174v2.456c0,.864-.667,2.719-1.483,2.719h-2.644c-1.916,0-7.174,1.487-7.174,3.4s5.258,3.4,7.174,3.4h3.153c1,0,.974,1.027.974,1.55V291.1c0,1.916,2.168,7.174,4.084,7.174s4.084-5.258,4.084-7.174v-3.276c0-.434.877-1.55,1.36-1.55h3.153c1.916,0,7.174-1.487,7.174-3.4S832.179,279.468,830.262,279.468Z" transform="translate(1.183 10.832)" fill="#62e1ff" stroke="#000" stroke-width="5"/>
    <circle id="Ellipse_82" data-name="Ellipse 82" cx="4.765" cy="4.765" r="4.765" transform="translate(939.934 322.021)" fill="#0d47a1" stroke="#000" stroke-width="5"/>
    <circle id="Ellipse_83" data-name="Ellipse 83" cx="4.765" cy="4.765" r="4.765" transform="translate(665.157 59.451)" fill="#0d47a1" stroke="#000" stroke-width="5"/>
    <circle id="Ellipse_85" data-name="Ellipse 85" cx="12.66" cy="12.66" r="12.66" transform="translate(704.191 326.55)" fill="rgba(0,0,0,0.25)" stroke="#000" stroke-width="5"/>
    <circle id="Ellipse_88" data-name="Ellipse 88" cx="12.66" cy="12.66" r="12.66" transform="translate(182.744 287.801)" fill="rgba(0,0,0,0.25)" stroke="#000" stroke-width="5"/>
    <circle id="Ellipse_90" data-name="Ellipse 90" cx="6.843" cy="6.843" r="6.843" transform="translate(849.332 174.891)" stroke="#000" stroke-width="5" fill="url(#linear-gradient)"/>
    <circle id="Ellipse_96" data-name="Ellipse 96" cx="4.737" cy="4.737" r="4.737" transform="translate(754.503 154.188)" stroke="#000" stroke-width="5"/>
    <path id="Path_1682" data-name="Path 1682" d="M37.426,8.777C59.232,8.777,76.6-2.47,76.6,1.289S59.232,12.652,37.426,12.652,1.111,5.049,1.111,1.289,15.621,8.777,37.426,8.777Z" transform="translate(487.958 564.872)" stroke="#000" stroke-width="5" opacity="0.605"/>
    <circle id="Ellipse_99" data-name="Ellipse 99" cx="31.314" cy="31.314" r="31.314" transform="translate(306.597 641.257)" fill="#f7b228" stroke="#000" stroke-width="5"/>
    <circle id="Ellipse_100" data-name="Ellipse 100" cx="31.314" cy="31.314" r="31.314" transform="translate(682.929 641.257)" fill="#f7b228" stroke="#000" stroke-width="5"/>
  </g>
</svg>
