<!DOCTYPE svg PUBLIC "-//W3C//DTD SVG 20010904//EN" "http://www.w3.org/TR/2001/REC-SVG-20010904/DTD/svg10.dtd">
<svg version="1.0" xmlns="http://www.w3.org/2000/svg" width="2538px" height="388px" viewBox="0 0 12000 1830" preserveAspectRatio="xMidYMid meet">
<g id="layer101" fill="#010101" stroke="none">
 <path d="M0 915 l0 -915 920 0 920 0 0 915 0 915 -920 0 -920 0 0 -915z m1190 646 c25 -7 62 -16 82 -22 21 -5 65 -32 98 -60 107 -89 158 -234 126 -359 -26 -101 -72 -153 -210 -235 -14 -9 -10 -15 31 -45 96 -71 134 -146 134 -265 0 -95 -16 -141 -67 -190 -102 -100 -197 -118 -594 -113 l-275 3 -18 125 c-17 119 -70 479 -138 930 -16 113 -33 216 -36 229 l-6 23 414 -5 c260 -3 431 -9 459 -16z"/>
 <path d="M680 1376 c0 -8 14 -98 30 -199 17 -102 30 -188 30 -192 0 -4 62 -6 138 -3 122 3 143 6 186 28 77 39 91 65 91 169 0 81 -2 91 -28 124 -15 20 -40 43 -55 51 -45 23 -139 36 -269 36 -100 0 -123 -3 -123 -14z"/>
 <path d="M770 786 c0 -8 11 -87 25 -176 14 -89 25 -164 25 -166 0 -12 171 -1 215 14 147 50 133 288 -20 331 -22 6 -86 11 -142 11 -82 0 -103 -3 -103 -14z"/>
 <path d="M2030 915 l0 -915 920 0 920 0 0 915 0 915 -920 0 -920 0 0 -915z m943 633 c3 -18 10 -67 16 -108 54 -395 40 -351 178 -554 38 -55 75 -111 83 -125 9 -14 49 -75 90 -135 41 -61 84 -125 95 -143 11 -17 48 -73 82 -123 l62 -90 -178 0 -177 0 -50 82 c-27 45 -62 103 -79 129 -16 26 -53 85 -81 131 -76 123 -98 157 -104 158 -3 0 -23 -55 -44 -122 -22 -68 -57 -180 -80 -251 l-40 -127 -163 0 -162 0 29 73 c16 39 52 135 80 212 28 77 64 174 80 215 16 41 47 124 69 184 l41 109 -34 211 c-19 116 -36 232 -39 259 l-5 47 163 0 163 0 5 -32z"/>
 <path d="M4060 915 l0 -915 920 0 920 0 0 915 0 915 -920 0 -920 0 0 -915z m934 608 c4 -32 27 -188 51 -348 24 -159 56 -370 71 -467 l27 -178 213 0 213 0 5 -32 c3 -18 10 -62 16 -98 6 -36 13 -80 16 -97 l5 -33 -590 0 -591 0 -5 23 c-9 43 -35 202 -35 220 0 16 17 17 210 17 193 0 210 1 210 18 0 16 -20 153 -110 743 -22 147 -40 272 -40 278 0 8 51 11 164 11 l164 0 6 -57z"/>
 <path d="M6100 915 l0 -915 920 0 920 0 0 915 0 915 -920 0 -920 0 0 -915z m1389 583 c7 -46 14 -98 18 -115 l5 -33 -326 0 c-304 0 -326 -1 -325 -17 0 -10 10 -83 23 -163 l22 -145 232 -3 c231 -2 232 -2 236 -25 11 -53 26 -156 26 -180 l0 -27 -231 0 -231 0 5 -28 c3 -15 13 -83 23 -150 l17 -122 267 0 267 0 12 -88 c7 -48 14 -97 17 -110 l4 -22 -432 2 -433 3 -17 115 c-9 63 -35 246 -58 405 -23 160 -59 401 -79 538 l-37 247 492 0 492 0 11 -82z"/>
 <path d="M8130 915 l0 -915 920 0 920 0 0 915 0 915 -920 0 -920 0 0 -915z m644 648 c5 -17 44 -275 67 -433 15 -111 15 -110 57 -110 59 1 112 16 139 42 37 35 111 164 198 351 l79 167 178 0 177 0 -55 -117 c-166 -353 -177 -371 -256 -434 -30 -24 -44 -41 -36 -43 7 -2 35 -9 62 -16 73 -17 118 -43 169 -100 37 -41 48 -63 61 -120 20 -85 20 -108 0 -190 -16 -72 -77 -173 -122 -207 -99 -73 -163 -83 -544 -83 l-306 0 -10 63 c-6 34 -23 143 -37 242 -15 99 -46 315 -70 480 -24 165 -49 338 -55 385 -7 47 -14 97 -17 113 l-5 27 160 0 c144 0 161 -2 166 -17z"/>
 <path d="M8890 828 c0 -20 29 -235 41 -312 l11 -69 105 6 c129 7 176 29 211 97 61 121 -3 250 -139 279 -72 16 -229 14 -229 -1z"/>
 <path d="M10160 915 l0 -915 920 0 920 0 0 915 0 915 -920 0 -920 0 0 -915z m654 573 c24 -51 53 -117 66 -145 l24 -53 208 0 c207 0 208 0 212 23 9 43 26 190 26 229 l0 38 176 0 176 0 -5 -22 c-6 -24 -57 -294 -131 -698 -24 -129 -59 -315 -77 -412 l-33 -178 -176 0 -175 0 -156 308 c-86 169 -235 463 -332 655 l-177 347 166 0 165 0 43 -92z"/>
 <path d="M11000 1096 c0 -8 22 -61 49 -118 27 -57 70 -150 96 -208 71 -158 77 -170 85 -170 4 0 12 48 19 108 20 173 41 345 47 375 l6 27 -151 0 c-124 0 -151 -3 -151 -14z"/>
 </g>

</svg>