<svg xmlns="http://www.w3.org/2000/svg" width="248.063" height="248.036" viewBox="0 0 248.063 248.036">
  <defs>
    <style>
      .cls-1 {
        fill: #171e30;
      }

      .cls-2 {
        fill: #fec32a;
      }

      .cls-3 {
        fill: #0dffa4;
      }
    </style>
  </defs>
  <g id="Group_11143" data-name="Group 11143" transform="translate(-500.936 -3507)">
    <path id="Path_14898" data-name="Path 14898" class="cls-1" d="M83.018,286.464a7.34,7.34,0,0,1-3.419-4.611c-.875-2.862-.477-4.452,8.666-31.8,5.327-15.821,9.62-28.94,9.62-29.1,0-.239-6.917,3.021-15.424,7.235-11.369,5.645-16.457,7.712-19.4,8.03-8.427.8-17.332-4.691-20.83-12.721-3.26-7.473-1.193-16.855,4.929-22.659,1.431-1.352,11.846-7.076,23.056-12.721L90.73,177.94,66.322,159.654c-20.512-15.265-24.567-18.684-25.2-20.83-.954-3.419-.618-5.6,2.038-8.162a5.492,5.492,0,0,1,2.582-1.58c.6-.22,1.705-.163,6-.507,7.2-.576,20.863-1.12,20.863-1.12H99.078L87.391,115.768c-6.36-6.519-12.244-12.959-12.959-14.47-2.147-4.214-2.465-11.29-.8-15.662A20.75,20.75,0,0,1,99.555,72.994c3.9,1.272,5.963,3.021,20.353,17.332,8.825,8.825,16.219,15.821,16.378,15.583.239-.159,4.929-14.072,10.495-30.927C158.07,41.034,158.626,40,164.669,40s6.6,1.034,17.888,34.982c5.565,16.855,10.336,30.768,10.495,31.007.159.159,7.394-6.758,15.98-15.344,16.775-16.775,19.8-18.843,27.19-18.843,11.449,0,21.546,10.972,20.512,22.261-.636,6.2-3.339,10.1-15.185,22.1l-11.29,11.29h25.68c28.224,0,29.178.159,31.563,4.77a7.433,7.433,0,0,1,.08,7.791c-.636,1.272-11.29,9.7-25.044,20.035L238.608,177.94l20.91,10.415c16.616,8.348,21.466,11.131,23.772,13.675A23.932,23.932,0,0,1,288.7,216.1c0,7.791-6.519,16.457-14.231,19.081-7.155,2.385-10.256,1.59-27.588-7-8.507-4.214-15.424-7.394-15.424-7s3.021,9.461,6.678,20.115c3.657,10.733,7.95,23.772,9.62,29.1,2.862,9.461,2.862,9.62,1.511,12.482-2.147,4.532-7.871,6.519-11.846,4.134-1.511-.875-9.461-6.837-54.063-40.15-9.541-7.155-17.809-13.2-18.286-13.357-.477-.239-2.465.875-4.373,2.385-5.406,4.134-66.148,49.213-68.374,50.8C89.776,288.451,86.2,288.451,83.018,286.464Z" transform="translate(460.303 3467)"/>
    <path id="Path_14899" data-name="Path 14899" class="cls-2" d="M253.435,1976.316a3.69,3.69,0,0,1-.954-3.657c.477-1.749,3.578-3.5,21.387-12.323,11.449-5.724,21.387-10.335,22.1-10.335,1.988,0,4.134,2.862,3.657,4.929-.4,1.431-4.611,3.9-20.671,11.926-11.051,5.565-21.069,10.335-22.1,10.574A3.181,3.181,0,0,1,253.435,1976.316Z" transform="translate(265.477 1708.853)"/>
    <path id="Path_14900" data-name="Path 14900" class="cls-2" d="M2373.5,1967.332c-16.7-8.427-20.909-10.892-21.307-12.323-.477-2.147,1.59-5.009,3.657-5.009,1.749,0,38.8,18.365,41.66,20.671,1.193.954,2.147,2.305,2.147,3.1,0,1.67-2.385,4.055-4.134,4.055C2394.812,1977.827,2384.953,1973.136,2373.5,1967.332Z" transform="translate(-1667.359 1708.853)"/>
    <path id="Path_14901" data-name="Path 14901" class="cls-2" d="M669.094,673.295c-9.143-9.143-16.775-17.332-17.093-18.365-.557-2.226,1.67-4.929,4.055-4.929,1.988,0,34.5,32.2,35.22,34.823.557,2.226-1.67,4.929-4.055,4.929C686.188,689.752,679.748,683.948,669.094,673.295Z" transform="translate(-102.32 2905.498)"/>
    <path id="Path_14902" data-name="Path 14902" class="cls-2" d="M2053.066,688.162a3.813,3.813,0,0,1-.954-3.339c.715-2.624,33.233-34.823,35.22-34.823a4.9,4.9,0,0,1,4.293,4.293c0,1.829-33.789,35.459-35.7,35.459A4.776,4.776,0,0,1,2053.066,688.162Z" transform="translate(-1391.125 2905.498)"/>
    <path id="Path_14903" data-name="Path 14903" class="cls-3" d="M519.593,636.288l11.687-34.982-1.59-2.783c-1.113-1.828-9.382-8.507-25.6-20.592C490.813,568.073,480,559.646,480,559.169c0-.557,10.495-.8,30.848-.8,28.94,0,30.927-.079,33.233-1.511,2.385-1.431,3.1-3.339,13.436-34.187C563.48,504.708,568.647,490,569.045,490s5.565,14.708,11.528,32.676c10.336,30.848,11.051,32.756,13.436,34.187,2.306,1.431,4.293,1.511,33.312,1.511,20.671,0,30.768.239,30.768.8,0,.477-11.051,9.063-24.567,19.161-18.445,13.754-24.805,18.843-25.6,20.751-.954,2.306-.318,4.452,10.256,36.333,6.2,18.684,11.29,34.187,11.29,34.584,0,.318-.477.477-1.034.239-.636-.239-13.2-9.461-27.986-20.512-14.867-11.051-27.986-20.433-29.178-20.91a6.174,6.174,0,0,0-4.611.079c-1.352.477-14.867,10.256-30.132,21.625-15.185,11.449-27.906,20.751-28.145,20.751S513.233,655.528,519.593,636.288Z" transform="translate(55.926 3052.777)"/>
  </g>
</svg>
