<svg xmlns="http://www.w3.org/2000/svg" width="231.791" height="247.704" viewBox="0 0 231.791 247.704">
  <defs>
    <style>
      .cls-1 {
        fill: #171e30;
      }

      .cls-2 {
        fill: #0dffa4;
      }

      .cls-3 {
        fill: #8e562e;
      }

      .cls-4 {
        fill: #656eff;
      }

      .cls-5 {
        fill: #ddd;
      }

      .cls-6 {
        fill: #fec32a;
      }
    </style>
  </defs>
  <g id="Group_11142" data-name="Group 11142" transform="translate(-509.209 -3094.916)">
    <path id="Path_14870" data-name="Path 14870" class="cls-1" d="M112.582,236.815c.387-11.373,1.47-15.473,5.184-20.115l2.321-2.863V176.856L116.3,174.38a27.627,27.627,0,0,1-10.212-12.843c-.851-2.476-1.083-10.522-1.083-39.457,0,0,.03-19.3.494-29.517s1.363-11.333,1.363-11.333a35.716,35.716,0,0,1,11.914-15.009,36.393,36.393,0,0,1,4.487-2.708c.7-.232.464-1.7-.7-5.029-2.166-6.112-2.94-17.33-1.779-25.376A41.24,41.24,0,0,1,142.91,2.471a23.131,23.131,0,0,1,5.9-1.989,38.328,38.328,0,0,1,9.94-1.158,52.289,52.289,0,0,1,11.242.77A16.41,16.41,0,0,1,176.8,2.78c10.909,5.416,19.342,16.4,21.508,28.007,1.238,6.344.464,23.055-1.238,27.233l-1.238,3.172,10.986,17.872,10.909,17.949,5.261-9.129,5.261-9.129.309-20.5c.387-19.5.464-20.812,2.4-26.692,4.719-14.39,16.634-26.3,30.56-30.56,5.57-1.7,20.27-2.166,26.3-.774,11.682,2.708,24.293,13,29.941,24.525,4.178,8.51,4.487,10.29,4.8,29.167.387,17.175.464,17.872,2.166,20.115,1.006,1.315,5.011,6.854,5.455,17.4s-.04,31.037-.04,31.037c0,34.351-.155,38.529-1.315,40.695-1.238,2.321-1.238,2.553,2.863,14.7,2.244,6.731,4.333,13.075,4.642,14.081l.464,1.7h-21.74v10.367c0,5.725.309,10.522.619,10.677a15.937,15.937,0,0,1,2.63,2.94c3.095,4.1,4.487,10.6,4.487,20.657v8.742h-94.62l.464-10.212c.387-11.373,1.47-15.473,5.184-20.115,2.321-2.863,2.321-2.94,2.321-12.92V193.644H225.692c-7.969,0-10.445-.232-10.445-1.006,0-.542,1.7-6.189,3.868-12.533,2.089-6.344,3.868-11.605,3.868-11.605s-2.553-.077-5.57-.077c-6.5,0-10.754-1.625-15.473-6.035L199,159.68v27.388c0,15.009.309,27.465.619,27.62a15.935,15.935,0,0,1,2.63,2.94c3.095,4.1,4.487,10.6,4.487,20.657v8.742H112.08Z" transform="translate(404.209 3095.592)"/>
    <path id="Path_14871" data-name="Path 14871" class="cls-2" d="M326.523,418.366c.619-2.166,1.013-4.862,2.561-4.862,1.006,0,0-4.431,0-33.289l-.586-37.473h-8.855c-3.636,3.636-2.861,2.47-4.95-2.095-1.161-2.553-1.161-58.643,0-62.667,1.238-4.333.927-3.876,4.95-5.888h3.266l24.874,1.389c18.955,0,21.772-.7,23.242,0,1.779.928,8.679,1.974,27.092,34a142.719,142.719,0,0,0,8.046,12.625c.232.155,10.485-10.323,17.758-23.011L438.5,272.093V252.485c0-20.966,1.409-20.206,4.813-26.937,2.476-4.874,2.72.264,8.6-2.522,4.719-2.244,3.937,0,10.668,0,6.963,0,.885-4.248,6.456-1.463,6.808,3.327,13.719-5.345,17.046,1.463l5.861,4.663L490.1,249.031v22.114l1.126,6.6c1.238,1.083-.851,3.563,0,5.265,1.47,2.785,2.979-2.673,3.443,27.5.542,34.66,8.1,30.361,4.391,33.223-2.4,1.857-1.025,8.8,1.761,16.54,1.315,3.482,2.321,6.421,2.321,6.576a53.339,53.339,0,0,1-7.35.232H433.9c-5.416,0-7.35-.232-7.35-1.006,0-.542,3.327-10.909,7.35-22.978l8.264-22.989,4.183-15.632-1.736-21.467-8.4,12.2c-16.479,28.78-24.224,40.921-25.384,42.081-.774.774-.949-.232-2.651,0-2.476.309-3.545-2.272-5.557-3.9-2.244-1.857-9.9-12.281-23.675-36.961-2.708-4.874-10.769-13.035-11.156-13.421-.387-.464.759,32.7.759,68.753l-2.717,58.952,4,6.892c2.089,0,4.075-.158,4.075,1.931,0,1.547,3.142-1.931-8.076-1.931l-7.82,1.931L362.7,389.21l-5.729-31.943-2.641-6.329c-2.321-2.785-8.783-1.393-12.11,0-4.8,2.012-7.091,3.534-7.091,38.272l2.7,28.4-8.056,1.931-6.826.077ZM456.024,240.9c1.238-2.321-.232-5.338-2.63-5.338a3.294,3.294,0,0,0-3.636,3.481C449.757,242.523,454.4,243.915,456.024,240.9Zm23.21,0c1.238-2.321-.232-5.338-2.63-5.338a3.294,3.294,0,0,0-3.636,3.481C472.967,242.523,477.609,243.915,479.234,240.9Z" transform="translate(215.346 2905.906)"/>
    <path id="Path_14872" data-name="Path 14872" class="cls-3" d="M330.776,415.917c.619-2.166-1.547-8.066,0-8.066,1.006,0,0,1.193,0-27.665l-2.425-37.214-5.861,2.148c-3.636,3.636-6.2,3.115-8.284-1.45-1.161-2.553-3.534-59.256-2.374-63.279,1.238-4.333,2.721-2.155,6.744-4.167l3.914,3.146,24.23-5.9c18.955,0,21.98-.7,23.45,0,1.779.928,6.819,2.552,25.232,34.582a171.276,171.276,0,0,0,11.015,16c.232.155,6.688-6.958,9.86-12.528,3.172-5.493,5.772-9.842,6.237-10.383.464-.464,3.209-8.376,6.923-14.875l5.371-14.433-1.3-19.023c0-21.2.464-25.3,3.946-32.107,2.476-4.874,8.588-10.445,14.468-13.23,4.719-2.244,5.88-2.476,12.611-2.476,6.963,0,7.659.155,13.23,2.94a31.741,31.741,0,0,1,15.087,15.087s1.134,1.067,1.733,7.295.665,17.617.665,17.617l.232,20.425,1.287,3.152c1.625,1.779.308,4.878.849,6.5.464,1.857-1.082,11.057-.849,30.708.387,29.786,3.089,9.168,1.7,11.644-.774,1.47-1.8,7-2.651,7.537-1.7,1.083-.019,1.2-5.125-14.038l-11.177-.626H464.372l-18.163,4.6L447.2,301.5c.309-8.975-3.911-16.222-4.3-16.454s-7.924,4.482-9.317,7.344c-4.178,8.278-22.723,41.062-24.193,42.609-.774.774-.339.834-2.041,1.066-2.476.309-3.216-.017-5.227-1.642-2.244-1.857-9.559-12.52-23.331-37.2A95.032,95.032,0,0,0,371,285.836c-.387-.464-3.721,29.982-3.721,66.035l-.613,51.233,1.57,10.4c2.089,0,2.611,3.1,2.611,5.187,0,1.547,7.038,0-4.181,0l-6.789-4.238,1.629-25.842-4.026-35.84-3.4-7.652c-2.321-2.785-10.079.844-13.405,2.236-4.8,2.012-4.006,7.526-4.006,42.264l-.883,27.549-5.005-1.251v0ZM456.024,240.9c1.238-2.321-.232-5.338-2.63-5.338a3.294,3.294,0,0,0-3.636,3.481C449.757,242.523,454.4,243.915,456.024,240.9Zm23.21,0c1.238-2.321-.232-5.338-2.63-5.338a3.294,3.294,0,0,0-3.636,3.481C472.967,242.523,477.609,243.915,479.234,240.9Z" transform="translate(215.346 2905.906)"/>
    <path id="Path_14875" data-name="Path 14875" class="cls-3" d="M530.109,248.189c-5.106-2.553-8.826-1.208-11.534-6.391-1.625-2.863-3.575-3.744-3.575-12.718,0-9.052.155-10.445,1.857-13.849,8.9-18.026,33.113-17.949,42.01.077,1.842,3.8,2.3,5.1,2.379,9.482.018.919-1.029,2.444-1.047,4.328-.077,9.98-3.421,10.555-8.449,16.048-4.565,4.951-5.995,4.473-13.035,4.783C533.453,250.181,534.442,250.355,530.109,248.189Zm-1.57-9.439c1.934-1.934,1.934-3.249,0-5.029-1.315-1.161-1.857-1.238-3.482-.542-3.249,1.47-2.166,6.963,1.393,7.118A5.85,5.85,0,0,0,528.539,238.75Zm24.6-2.089a3.856,3.856,0,0,0-1.393-2.94c-1.315-1.161-1.857-1.238-3.482-.542-2.63,1.238-2.785,5.338-.155,6.267A3.8,3.8,0,0,0,553.142,236.661Z" transform="translate(25.929 2908.905)"/>
    <path id="Path_14876" data-name="Path 14876" class="cls-4" d="M324.605,1152.815c0-1.857.557-6.127,2.336-6.127,1.547,0,3.155-2.205,2.845-37.562l2.075-32.537-8.239-2.5c-2.476,2.94-2.022.035-5.194-1.589-4.565-2.321-1.527-.055-1.527-34.871,0-18.178,2.464-24.393,2.928-25.863,1.238-4.333-.231-2.642,3.793-4.653l-.631-4,25.512,1.047c18.955,0,23.636-.213,25.106.483,1.315.7,5.165,4.523,14.6,21.08,7.427,13,11.7,27.863,12.322,28.714,1.083,1.625,9.047-1.715,14.7-11.618,1.722-2.952,2.077-6.647,4.266-11.639,1.706-3.892,5.215-9.043,7.251-12.533,4.333-7.427,6.744-13.093,10.8-16.034s26.486-2.457,26.486-2.457c16.015-.155,26.537.077,28.471.619,3.714,1.006,8.9,6.421,10.058,10.522a76.449,76.449,0,0,1,.812,19.749c-.449,5.625-3.123,10.934-3.123,18.716l-1.268,17.909,1.783,7.548c-1.47,1.7-2.164,3.158-2.628,2.616-.387-.387-.393-9.362-3.1-17.331l-6.44-6.76-23.558.413H442.3v-14.932c0-8.278-.232-15.241-.542-15.473-.232-.309-1.7,1.625-3.172,4.255-.49.88-.954,1.672-1.653,2.868a447.186,447.186,0,0,1-26.224,38.529c-1.857,2.089-1.831,1.006-4.771,0-2.4-.851-3.975-.654-8.617-9.165-2.863-5.261-12.527-22.9-21.192-37.6-2.321-3.945-8.96,0-9.115,0s1.647,27.254,1.647,60.986l-1.081,57.509,2.39,8.8c2.476.851,4.634.634,4.634,2.878,0,.464-2.472-1.587-9.976-1.587h-4.985l1.709-26.6c.387-22.823-2.512-36.073-3.208-38.239-2.012-6.112-10.952-14.057-15.517-9.8l-5.21,10.759v63.881l-7.626,1.587C318.956,1152.815,324.605,1154.362,324.605,1152.815Z" transform="translate(215.069 2172.413)"/>
    <path id="Path_14877" data-name="Path 14877" class="cls-2" d="M323.12,1153.109c0-1.857,3.595-5.508,5.374-5.508,1.547,0,.309-2.492,0-37.849v-34.861l-5.374,2.132c-2.476,2.94-4.3-2.21-7.476-3.834-4.565-2.321-1,7.9-1-26.911,0-5.636-3.927-11.122-3.868-16.083.118-10.058-.815-11.234.653-18.015s5.219-9.106,5.219-9.106,1.858-2.209,9.208-2.692,22.366-.382,22.366-.382c18.955,0,22.989-.245,27.182,1.885s6.4,7.167,15.834,23.724c1.448,2.535,3.068,5.973,4.573,8.591,5.421,9.435,10.823,23.33,11.321,24.078,1.083,1.547,2.629-5.941,8.586-16.386l4.12-8.691,8.381-2.253,4.335,1.113-1.683,2.14c-1.006,1.78-2.878,8.911-8.294,18.272s-9.647,16.193-10.5,17.044c-1.857,2.089-3.917-1.621-6.857-2.626-2.4-.851-1.508,1.655-6.15-6.855-2.863-5.261-12.945-14.032-21.611-28.731a43.141,43.141,0,0,0-5.256-7.318c-.125,0-.249,14.622-.293,38.2-.01,5.364-2.721,11.581-2.721,18.159v65.122l4.463,3.372c2.476.851,3.437,2.351,3.437,4.595,0,.464-.395-.324-7.9-.324l-10.608-1,1.3-27.708c.387-22.823-2.21-33.084-2.906-35.25-2.012-6.112-9.06-6.058-13.625-1.8l-2.4,2.244v32.571l-1.544,29.947h-9.419C319.153,1152.109,323.12,1154.656,323.12,1153.109Z" transform="translate(215.069 2172.413)"/>
    <path id="Path_14878" data-name="Path 14878" class="cls-5" d="M319.688,1517.549c0-1.857,3.946-6.112,5.725-6.112.921,0,2.445-8.809,2.445-8.809l45.213,1.135v7.365l2.708,1.006c2.476.851,5.148,4.168,5.148,6.411,0,.464-4.142.629-11.647.629H357.753l1.005-15.694H342.536s.153,9.891-.411,15.694H330.907C320.075,1519.174,319.688,1519.1,319.688,1517.549Z" transform="translate(213.891 1807.973)"/>
    <path id="Path_14879" data-name="Path 14879" class="cls-5" d="M1920,2352.687c0-2.011,2.708-5.261,5.029-5.8l1.934-.464.589-7.948,14.884.04v15.646h-11.218C1920.774,2354.157,1920,2354.079,1920,2352.687Z" transform="translate(-1270.37 972.99)"/>
    <path id="Path_14880" data-name="Path 14880" class="cls-5" d="M2425.473,2338.316v7.795l2.708,1.006c2.476.851,5.174,4.278,5.174,6.522,0,.464-4.168.519-11.75.519H2410l.8-15.841Z" transform="translate(-1722.46 972.99)"/>
    <path id="Path_14882" data-name="Path 14882" class="cls-4" d="M327.185,1503.164c-.3-.232-.533-13.695-.533-29.788v-47.043h45.705v77.373H357.883v-23.212c0-24.914-.662-27.048-4.242-29.678a7.281,7.281,0,0,0-9.393.973s-1.562,1.092-2.152,7.862-.209,19.218-.209,19.218v24.837H334.8C330.841,1503.706,327.413,1503.474,327.185,1503.164Z" transform="translate(214.606 1807.967)"/>
    <path id="Path_14891" data-name="Path 14891" class="cls-6" d="M2020,2319.342V2300h14.7v38.683H2020Z" transform="translate(-1362.634 972.99)"/>
    <path id="Path_14892" data-name="Path 14892" class="cls-6" d="M2420,2319.342V2300h14.7v38.683H2420Z" transform="translate(-1731.687 972.99)"/>
    <path id="Path_14893" data-name="Path 14893" class="cls-6" d="M324.874,1453.228C320,1451.99,320,1451.758,320,1424.6V1400h14.777l-.232,24.68c-.232,22.746-.309,24.835-1.625,26.227A8,8,0,0,1,324.874,1453.228Z" transform="matrix(0.999, -0.035, 0.035, 0.999, 157.249, 1814.654)"/>
    <path id="Path_14894" data-name="Path 14894" class="cls-6" d="M2615.184,1437.6,2610,1421.972V1400h15.473v24.216c0,25.608-.077,26.382-3.714,28.316C2620.522,1453.151,2619.826,1451.526,2615.184,1437.6Z" transform="translate(-1906.987 1803.359)"/>
    <path id="Path_14895" data-name="Path 14895" class="cls-6" d="M1206.835,1442.629a64.777,64.777,0,0,1-5.725-8.742c-2.244-3.946-6.963-12.147-10.522-18.259-3.481-6.035-6.885-11.992-7.5-13.152l-1.083-2.089,8.2.155c4.225.069,6.852-.368,8.743.684,1.773.962,2.566,4.039,6.653,11.308,2.863,5.029,5.416,9.129,5.648,9.129s3.25-4.874,6.576-10.831l6.189-10.754,8.82-.077,8.583.077-.924,1.7c-.619.928-6.112,10.29-12.146,20.889-6.112,10.522-11.837,19.651-12.688,20.27C1213.334,1444.563,1208.769,1444.408,1206.835,1442.629Z" transform="translate(-589.467 1803.359)"/>
    <path id="Path_14896" data-name="Path 14896" class="cls-6" d="M538.3,530.173c-9.129-1.857-16.711-9.826-17.794-18.568-.464-3.946-.464-4.023,3.327-7.814L527.542,500h38.606v2.914l-.387,3.895c-.31,5.184-.851,7.659-2.4,10.6C558.566,526.846,548.2,532.107,538.3,530.173Z" transform="translate(21.046 2633.729)"/>
    <path id="Path_14897" data-name="Path 14897" class="cls-6" d="M2034.438,537.554c-8.51-2.166-16.324-11.141-17.021-19.729-.155-2.553,0-3.095,1.315-3.327,4.178-.619,5.261-1.161,8.123-3.714L2029.95,508v2.94c0,2.63,2.244,2.687,4.487,2.3a9.389,9.389,0,0,0,5.57-2.455l3.017-2.708.232,3.327c.232,3.172,2.193,2.492,4.437,2.26,2.631-.309,7.013-3.962,7.013-3.962s1.161-.7,2.476,1.547a5.443,5.443,0,0,0,3.791,2.863c2.4.464,2.4.542,2.012,4.178C2061.438,531.365,2047.435,540.8,2034.438,537.554Z" transform="translate(-1360.205 2626.348)"/>
    <circle id="Ellipse_364" data-name="Ellipse 364" class="cls-1" cx="4" cy="4" r="4" transform="translate(665 3141)"/>
    <circle id="Ellipse_365" data-name="Ellipse 365" class="cls-1" cx="4" cy="4" r="4" transform="translate(688 3141)"/>
    <circle id="Ellipse_366" data-name="Ellipse 366" class="cls-1" cx="4" cy="4" r="4" transform="translate(548 3141)"/>
    <circle id="Ellipse_367" data-name="Ellipse 367" class="cls-1" cx="4" cy="4" r="4" transform="translate(571 3141)"/>
    <path id="Path_14904" data-name="Path 14904" class="cls-1" d="M.529,0l16,1.2V2.657L16,5,.529,5.85.4,2.657Z" transform="translate(556 3309)"/>
  </g>
</svg>
