<svg xmlns="http://www.w3.org/2000/svg" width="231.452" height="247.689" viewBox="0 0 231.452 247.689">
  <defs>
    <style>
      .cls-1 {
        fill: #171e30;
      }

      .cls-2 {
        fill: #8e562e;
      }

      .cls-3 {
        fill: #3d6254;
      }

      .cls-4 {
        fill: #0dffa4;
      }

      .cls-5 {
        fill: #f78b4a;
      }

      .cls-6 {
        fill: #fec32a;
      }
    </style>
  </defs>
  <g id="Group_11144" data-name="Group 11144" transform="translate(-509 -3881)">
    <path id="Path_14848" data-name="Path 14848" class="cls-1" d="M119.321,224.939c0-25.545.774-32.744,4.645-42.575a72.658,72.658,0,0,1,14.243-22.371l5.032-5.341-19.12-19.12L105,116.335l12-12c11.224-11.224,12.153-12,14.862-12H134.8v-6.27c0-40.717,28.641-76.325,68.12-84.762,6.889-1.471,28.873-1.393,35.918.077,39.091,8.283,67.81,43.736,67.81,83.834v7.122h2.941c2.709,0,3.638.774,14.862,12l12,12-19.12,19.2-19.12,19.12,5.419,5.728a67,67,0,0,1,17.03,32.512c1.239,5.728,1.471,9.986,1.471,30.886v24.151H119.321Z" transform="translate(404 3880.76)"/>
    <path id="Path_14849" data-name="Path 14849" class="cls-2" d="M409.862,400.707c.387-19.739,4.135-14.312,9.553-24.3,3.87-7.044,9.023-13.286,15.989-16.77,3.019-1.471,6.619-11.681,6.851-11.835.155-.077-14.1-10.355-25.554-21.812l-19.245-19.569,2.579-.966c2.09-2.09,3.083-3.635,3.47-3.635.464,0,2.2,2.177,5.918,5.893l8.489,5.046v-4.271c0-1.935.31-12.7.7-24,.7-23.61,1.548-28.254,7.354-40.02,8.747-17.8,23.842-30.344,43.5-36.382,6.038-1.78,8.18-2.513,18.475-2.591,8.979,0,12.8.81,16.9,1.894,25.235,6.735,43.658,24.693,50.935,49.619,1.316,4.567,1.626,8.9,2.167,26.706.387,11.689.7,22.836.7,24.771v4.425l7.176-7.076c3.716-3.716,6.8-6.565,7.268-6.565.387,0,1.981,2.157,4.071,4.247l2.85,2.767L559.731,326.68,535.068,347.8l7.912,7.57c10.373,5.419,4.53,10.5,9.717,20.949,4.412,8.979,7.356,7.895,7.356,26.318l-1.582,8.2L487.8,405.619l-73.782-.911ZM468.848,281.86c2.942-1.548,3.948-4.257,3.948-10.528s-1.006-8.979-3.948-10.528c-4.025-2.09-8.9-.619-10.6,3.174-1.239,2.709-1.161,12.7.155,15.017A7.68,7.68,0,0,0,468.848,281.86Zm46.445,0c2.942-1.548,3.948-4.257,3.948-10.528s-1.006-8.979-3.948-10.528c-4.025-2.09-8.9-.619-10.605,3.174-1.239,2.709-1.161,12.7.155,15.017A7.68,7.68,0,0,0,515.293,281.86Z" transform="translate(136.448 3690.927)"/>
    <path id="Path_14850" data-name="Path 14850" class="cls-3" d="M403.283,1506.282c.387-19.739,1.161-23.532,6.58-33.518,3.87-7.044,13.779-16.643,20.745-20.126,3.019-1.471,6.2-3.255,6.429-3.409.155-.077-9.68-9.131-21.137-20.587l-20.9-20.9,3.87-3.87c2.09-2.09,4.18-3.87,4.645-3.87.387,0,10.992,10.45,23.455,23.223l22.758,23.223h77.1l22.758-23.223C562.048,1410.45,572.653,1400,573.04,1400c.464,0,2.554,1.78,4.645,3.87l3.87,3.87-20.823,20.823-20.745,20.823,5.264,2.787a50.453,50.453,0,0,1,22.836,23.3c4.412,8.979,5.341,14.321,5.341,32.744v15.637H402.973Z" transform="translate(136.448 2589.354)"/>
    <path id="Path_14851" data-name="Path 14851" class="cls-4" d="M498.31,2115.192c.31-15.636.542-18.268,2.09-23.068a51.007,51.007,0,0,1,13.159-21.365c4.877-4.877,13.159-10.76,15.095-10.76.232,0,.464,16.411.464,36.382v36.382H498Z" transform="translate(41.422 1980.443)"/>
    <path id="Path_14852" data-name="Path 14852" class="cls-4" d="M2300,2096.382c0-19.971.31-36.382.619-36.382,1.084,0,9.521,5.264,12.463,7.818,7.818,6.812,14.63,18.346,16.72,28.177.774,3.716,1.161,10.373,1.161,21.133v15.636H2300Z" transform="translate(-1621.088 1980.443)"/>
    <path id="Path_14853" data-name="Path 14853" class="cls-4" d="M480.924,1507.056c-10.682-3.87-16.72-13.469-15.559-24.539l.542-4.722-35.453-34.989L395,1407.9l3.87-3.948c2.09-2.167,4.18-3.948,4.645-3.948.387,0,10.992,10.45,23.455,23.223l22.758,23.223h77.1l22.758-23.223C562.048,1410.45,572.653,1400,573.04,1400c.464,0,2.554,1.78,4.645,3.87l3.87,3.87-35.143,35.144-35.144,35.144-.077,6.889c-.077,6.038-.31,7.276-2.322,10.915C503.14,1506.05,491.451,1510.772,480.924,1507.056Z" transform="translate(136.448 2589.354)"/>
    <path id="Path_14854" data-name="Path 14854" class="cls-4" d="M907.951,532.914C903.694,523.78,900,519.081,900,502.206V487.653h8.9l1.858-3.483a24.133,24.133,0,0,1,10.373-9.831c4.412-2.322,14.088-2.477,18.965-.31,2.864,1.316,3.483,1.393,5.264.387,4.257-2.245,14.862-11.456,19.275-16.8,4.567-5.5,5.728-5.883,5.806-1.935,0,2.787,2.245,8.825,4.722,12.7,2.013,3.174,2.636,3.4,5.732,3.782,7.122,1.006,14.858,6.9,17.335,13.015,1.006,2.4,1.161,2.477,5.573,2.477h4.567v14.94c0,2.467.333,6.169,0,8.375-1.724,11.465-8.752,12.807-12.542,20.653-6.812,13.934-11.309,14.479-26.326,19.511C962.073,553.609,915.15,548.163,907.951,532.914Zm26.805-23.122c2.942-1.548,3.948-4.257,3.948-10.528s-1.006-8.979-3.948-10.528c-4.025-2.09-8.9-.619-10.6,3.174-1.239,2.709-1.161,12.7.155,15.017A7.68,7.68,0,0,0,934.756,509.792Zm46.445,0c2.942-1.548,3.948-4.257,3.948-10.528s-1.006-8.979-3.948-10.528c-4.025-2.09-8.9-.619-10.6,3.174-1.239,2.709-1.161,12.7.155,15.017A7.68,7.68,0,0,0,981.2,509.792Z" transform="translate(-329.46 3462.996)"/>
    <path id="Path_14856" data-name="Path 14856" class="cls-5" d="M941.018,1210.68c-12-3.251-19.851-8.528-26.973-17.74-6.193-8.205-10.863-19.374-10.941-27.889l-1.093-3.572,2.565-.515,2.724,4.779,3.089,3.842c3.638,6.812,10.815,7.5,19.175,8.117,5.31.417,13.322-3.455,18.515-8.506a18.216,18.216,0,0,1,2.491-2.27c3.643-2.489,6.812-1.614,7.777-.619,3.87,5.419,12.573,15.147,19.772,15.147,7.509,0,17.453-6.023,21.014-12.68l.545-2.334,4.2-6.115,2.937,3.561-2.154,2.554c-.078,9.134-5.33,16.144-12.142,24.658-6.115,7.818-15.9,11.476-26.352,15.037C958.741,1208.614,948.759,1212.77,941.018,1210.68Z" transform="translate(-329.46 2813.546)"/>
    <path id="Path_14858" data-name="Path 14858" class="cls-6" d="M1115.837,2010.837l-11.263-11.023h77.448l-11.225,11.022c-10.218,10.3-10.927,10.81-10.927,10.81s-8.609-5.474-16.792-5.474-15.784,5.474-15.941,5.474C1126.9,2021.647,1121.8,2016.8,1115.837,2010.837Z" transform="translate(-518.591 2035.799)"/>
    <path id="Path_14859" data-name="Path 14859" class="cls-6" d="M943.587,1253.1a52.177,52.177,0,0,1-18.888-7.431c-14.63-9.521-22.764-23.416-24.854-41.22l-.415-4.451h3.749c4.18,0,4.257.077,6.193,3.329a29.776,29.776,0,0,0,11.689,10.682c6.5,2.942,18.114,1.471,23.223-3.019,1.161-1.084,1.548-1.084,1.858-.232,1.084,3.174,5.5,5.264,9.057,4.412,2.013-.542,4.567-2.632,5.186-4.335a.49.49,0,0,1,.494-.446c.223-.139,1.708.7,3.919,2.149,3.716,2.245,4.954,2.554,10.6,2.864,5.5.232,6.967,0,10.6-1.7a24.856,24.856,0,0,0,11.379-10.605c1.548-3.019,1.625-3.1,5.883-3.1h4.279l-.486,5.186a52,52,0,0,1-15.869,32.744c-7.2,7.276-13.392,10.992-22.836,13.856A58.151,58.151,0,0,1,943.587,1253.1Zm8.747-15.327a4.76,4.76,0,0,0,.929-2.941c0-2.632-1.316-3.871-4.258-3.871-3.174,0-9.986-3.483-11.534-5.806-2.167-3.251-7.431-1.858-7.431,1.935,0,3.1,6.115,8.36,12.308,10.528C945.91,1238.937,951.1,1239.014,952.335,1237.775Z" transform="translate(-328.538 2773.872)"/>
    <path id="Path_14860" data-name="Path 14860" class="cls-6" d="M1541.907,1175.831c.155-.387,1.316-2.709,2.554-5.264l2.167-4.567,1.006,2.864a25.043,25.043,0,0,0,2.632,5.186l1.626,2.322h-5.109C1543.92,1176.373,1541.752,1176.141,1541.907,1175.831Z" transform="translate(-921.671 2805.24)"/>
    <path id="Path_14861" data-name="Path 14861" class="cls-6" d="M1479.735,480.577a29.449,29.449,0,0,0-5.469-7.706l-4.664-3.055,7.031-3.848c3.7-2.493,8.418-7.206,13.5-12.471,2.441-2.527,6.479-7.006,6.508-7.657,0-.562,2.03,4.878,2.03,4.878l3.837,10.033s2.305,5.137,2.469,5.538c.163.321-.917,0-2.387,0a19.793,19.793,0,0,0-11.133,3.952A25.512,25.512,0,0,0,1483,481.7l-1.763,3.462Z" transform="translate(-856.26 3468.209)"/>
    <circle id="Ellipse_363" data-name="Ellipse 363" class="cls-1" cx="15" cy="15" r="15" transform="translate(610 4060)"/>
  </g>
</svg>
