<!DOCTYPE svg PUBLIC "-//W3C//DTD SVG 20010904//EN" "http://www.w3.org/TR/2001/REC-SVG-20010904/DTD/svg10.dtd">
<svg version="1.0" xmlns="http://www.w3.org/2000/svg" width="1200px" height="231px" viewBox="0 0 12000 2310" preserveAspectRatio="xMidYMid meet">
<g id="layer101" fill="#0dffa4" stroke="none">
 <path d="M5212 1594 c4 -781 2 -754 69 -886 44 -86 112 -149 222 -203 138 -68 195 -80 372 -79 135 0 157 3 223 27 153 54 249 136 315 268 64 130 72 177 72 419 0 200 -2 220 -23 280 -58 161 -184 314 -309 372 -58 28 -82 33 -163 36 -155 6 -260 -26 -357 -109 l-48 -42 -6 74 c-4 41 -7 155 -8 255 -1 170 -2 183 -23 214 -37 53 -77 68 -216 76 l-123 7 3 -709z m782 -121 c96 -67 131 -176 123 -373 -8 -188 -50 -278 -157 -333 -46 -24 -65 -28 -115 -25 -65 4 -131 32 -177 75 -61 58 -95 203 -84 365 7 115 31 187 82 246 58 68 103 84 219 77 56 -3 77 -10 109 -32z"/>
 <path d="M635 1836 c-177 -41 -270 -92 -383 -211 -101 -105 -152 -196 -199 -355 -27 -92 -28 -102 -27 -315 0 -171 5 -239 18 -305 41 -194 110 -325 230 -437 130 -122 267 -178 469 -194 253 -19 460 17 588 103 79 53 182 167 219 242 34 70 73 213 68 253 -3 27 -6 28 -64 31 -34 2 -102 -1 -152 -6 -108 -11 -139 -30 -202 -122 -50 -73 -100 -115 -170 -141 -47 -18 -73 -20 -180 -17 -118 3 -129 5 -192 36 -109 53 -187 153 -225 285 -23 81 -29 354 -9 447 33 155 117 278 228 332 154 76 407 47 494 -55 15 -18 47 -74 71 -125 l44 -92 177 2 177 3 3 24 c6 43 -28 163 -74 258 -62 129 -157 227 -275 282 -143 67 -211 82 -404 87 -123 3 -187 0 -230 -10z"/>
 <path d="M2040 1816 c-171 -65 -247 -144 -286 -299 -20 -75 -14 -208 11 -280 20 -57 98 -145 159 -181 70 -41 180 -73 346 -101 207 -35 253 -56 266 -121 8 -40 -25 -80 -79 -95 -58 -17 -206 -16 -237 0 -14 8 -44 29 -67 47 l-41 34 -139 -1 c-159 -1 -187 -6 -191 -36 -5 -37 61 -164 113 -215 60 -59 165 -115 252 -133 151 -32 411 -11 536 44 66 29 160 120 187 182 30 72 44 251 36 494 -9 307 -36 397 -155 516 -70 71 -108 94 -211 130 -57 19 -88 22 -265 25 -151 3 -209 0 -235 -10z m332 -298 c46 -14 122 -77 145 -122 19 -36 29 -203 14 -225 -10 -15 -22 -13 -288 65 -116 34 -152 80 -140 182 4 37 12 53 41 79 34 31 40 33 112 33 42 0 94 -5 116 -12z"/>
 <path d="M7030 1805 c-277 -83 -369 -197 -390 -485 -5 -69 -10 -291 -10 -493 0 -341 1 -368 18 -375 27 -11 340 -8 351 3 5 6 12 197 16 470 4 253 11 474 16 491 22 70 101 114 206 114 84 0 140 -24 179 -76 l29 -37 8 -411 c4 -226 10 -421 13 -434 7 -33 71 -99 107 -111 39 -13 227 -19 245 -8 15 10 17 678 2 878 -13 182 -54 279 -152 364 -55 47 -93 66 -198 100 -71 23 -107 28 -220 31 -122 4 -143 2 -220 -21z"/>
 <path d="M8252 1804 c-106 -36 -140 -55 -201 -115 -75 -76 -111 -154 -127 -275 -5 -46 -4 -53 14 -63 22 -12 215 -14 297 -3 48 7 50 8 65 51 32 95 114 141 251 141 78 0 173 -30 189 -60 16 -30 12 -85 -8 -103 -30 -28 -103 -55 -217 -82 -138 -32 -284 -80 -355 -116 -69 -34 -142 -109 -171 -174 -31 -67 -33 -224 -6 -303 42 -120 196 -232 367 -268 92 -19 295 -14 385 10 186 50 310 174 350 348 23 101 21 102 -135 96 -75 -3 -135 -10 -149 -18 -14 -7 -53 -37 -88 -66 -94 -80 -110 -86 -219 -82 -112 4 -147 22 -152 81 -6 69 58 101 329 167 335 81 450 174 466 377 10 137 -36 253 -139 349 -49 45 -81 65 -139 87 -109 40 -162 47 -358 47 -161 0 -182 -3 -249 -26z"/>
 <path d="M3095 1811 l-70 -6 1 -465 c0 -449 1 -468 22 -543 31 -108 51 -143 119 -208 107 -103 254 -159 433 -167 170 -7 294 24 421 105 25 16 28 15 86 -21 102 -63 168 -79 323 -80 155 -1 222 13 340 71 52 25 95 57 141 103 60 59 69 74 95 150 l27 85 4 475 c2 282 0 481 -5 489 -7 10 -34 13 -103 12 -131 -2 -167 -12 -211 -59 -46 -50 -46 -47 -53 -517 l-7 -370 -24 -37 c-13 -21 -43 -50 -66 -65 -37 -25 -50 -28 -129 -28 -81 0 -90 2 -131 30 -79 56 -77 43 -85 563 -3 254 -10 467 -14 473 -9 15 -332 19 -346 5 -5 -4 -13 -218 -18 -474 -10 -446 -12 -469 -32 -507 -15 -29 -37 -49 -73 -69 -47 -26 -59 -28 -125 -24 -85 6 -147 35 -182 87 -22 33 -23 41 -24 265 0 317 -14 705 -25 716 -12 12 -202 19 -289 11z"/>
 <path d="M9390 1811 l-145 -6 -5 -30 c-15 -82 40 -276 113 -400 61 -105 236 -274 362 -350 195 -118 336 -236 389 -327 40 -68 46 -167 14 -228 -19 -36 -35 -51 -86 -77 -57 -30 -73 -33 -148 -33 -50 0 -98 6 -117 14 -71 30 -129 123 -147 233 -5 31 -13 60 -18 65 -16 16 -176 22 -230 9 -70 -17 -86 -38 -90 -121 -10 -180 109 -372 283 -455 129 -61 173 -70 345 -69 141 1 162 3 235 28 44 15 104 41 134 59 113 68 207 210 232 352 14 84 6 242 -15 304 -49 137 -213 305 -453 464 -90 60 -190 133 -224 165 -59 54 -61 57 -38 63 13 4 174 7 357 8 209 1 341 5 353 11 17 10 19 22 19 153 0 78 -4 148 -9 156 -7 11 -93 14 -487 16 -264 1 -544 0 -624 -4z"/>
 <path d="M11455 1812 c-51 -9 -53 -17 -54 -219 l-1 -163 -297 -1 c-164 -1 -332 -4 -373 -8 l-75 -6 -3 -156 -2 -156 239 -374 c132 -206 284 -441 338 -524 l98 -150 135 0 c158 0 199 7 239 41 63 53 77 160 87 673 l7 351 94 0 93 0 0 155 0 155 -94 0 -93 0 -5 180 c-3 110 -9 185 -16 192 -12 12 -256 20 -317 10z m-35 -1014 c0 -183 -4 -338 -8 -345 -5 -7 -20 9 -44 45 -162 254 -388 613 -388 617 0 2 71 6 158 8 86 1 185 4 220 5 l62 2 0 -332z"/>
 </g>

</svg>