<!DOCTYPE svg PUBLIC "-//W3C//DTD SVG 20010904//EN" "http://www.w3.org/TR/2001/REC-SVG-20010904/DTD/svg10.dtd">
<svg version="1.0" xmlns="http://www.w3.org/2000/svg" width="1600px" height="322px" viewBox="0 0 16000 3220" preserveAspectRatio="xMidYMid meet">
<g id="layer101" fill="#000000" stroke="none">
 <path d="M6946 3114 c-14 -14 -16 -101 -16 -817 1 -1023 4 -1076 90 -1253 89 -185 269 -312 538 -380 79 -20 119 -24 248 -24 168 0 237 11 366 61 233 90 372 266 454 574 25 94 25 105 22 338 -4 233 -5 245 -32 327 -57 171 -159 331 -280 436 -126 109 -233 149 -401 148 -167 -1 -301 -42 -403 -124 -34 -27 -66 -50 -71 -50 -5 0 -11 136 -13 303 -4 201 -9 312 -17 332 -21 51 -91 114 -145 130 -72 22 -319 21 -340 -1z m1005 -1082 c62 -32 108 -87 140 -169 22 -54 24 -72 24 -268 0 -237 -6 -267 -75 -373 -33 -51 -48 -65 -106 -93 -60 -30 -78 -34 -144 -33 -68 1 -83 5 -150 40 -84 44 -127 96 -156 187 -22 69 -31 349 -15 442 24 138 110 255 209 285 15 5 70 9 123 9 87 1 102 -2 150 -27z"/>
 <path d="M915 2526 c-231 -55 -326 -106 -476 -256 -148 -148 -200 -231 -264 -421 -85 -258 -98 -384 -70 -679 51 -528 257 -842 658 -998 153 -60 193 -70 346 -83 165 -14 272 -4 446 41 208 54 276 91 419 229 144 140 192 226 241 426 30 121 31 139 5 165 -18 18 -33 20 -173 20 -190 0 -239 -12 -309 -77 -27 -26 -69 -78 -95 -116 -81 -122 -182 -176 -343 -184 -299 -16 -468 73 -576 302 -58 123 -69 198 -68 440 0 236 13 308 75 435 93 187 255 289 459 290 191 0 325 -41 395 -123 32 -37 79 -124 128 -239 22 -51 55 -58 267 -57 266 0 280 10 241 171 -53 216 -121 337 -273 485 -101 97 -169 137 -322 188 -135 45 -211 56 -416 61 -180 4 -203 2 -295 -20z"/>
 <path d="M2835 2516 c-101 -29 -164 -58 -234 -107 -125 -87 -173 -169 -213 -359 -22 -109 -19 -159 18 -288 29 -100 61 -150 146 -227 109 -98 261 -154 533 -196 276 -43 335 -70 335 -155 0 -78 -67 -107 -250 -107 -130 -1 -152 7 -228 76 l-45 42 -196 -1 c-210 -1 -244 -7 -262 -48 -10 -21 -7 -38 15 -98 37 -99 76 -157 155 -229 126 -116 294 -177 511 -186 164 -7 302 12 449 62 119 40 169 72 250 162 98 109 115 175 126 488 8 246 -8 543 -35 650 -29 117 -80 211 -155 293 -108 116 -226 180 -402 217 -110 24 -449 31 -518 11z m401 -441 c71 -29 120 -72 152 -133 31 -58 32 -64 32 -182 0 -112 -2 -122 -17 -117 -10 3 -76 22 -148 42 -71 20 -160 45 -196 55 -86 25 -129 55 -157 110 -44 84 -13 186 68 228 41 22 53 23 138 18 52 -4 109 -13 128 -21z"/>
 <path d="M11085 2520 c-51 -11 -221 -68 -259 -87 -15 -8 -66 -51 -112 -95 -115 -110 -164 -216 -181 -384 -5 -54 -3 -64 16 -83 20 -20 30 -21 229 -21 144 0 214 4 231 13 16 8 33 33 48 70 13 33 31 70 40 84 55 84 310 119 445 61 77 -33 102 -105 53 -154 -37 -37 -103 -62 -276 -105 -187 -46 -369 -105 -464 -150 -81 -38 -197 -148 -226 -214 -66 -149 -65 -333 2 -484 11 -26 51 -76 98 -122 92 -91 188 -142 346 -186 212 -58 516 -27 715 73 94 46 210 175 259 289 12 28 31 86 41 130 18 71 18 82 5 102 -21 32 -49 36 -203 30 -182 -7 -204 -14 -299 -99 -120 -108 -151 -123 -253 -123 -166 0 -230 27 -230 100 0 73 55 101 355 176 476 119 633 222 680 446 30 138 10 280 -57 405 -39 74 -161 199 -224 231 -94 47 -229 87 -331 97 -117 11 -391 11 -448 0z"/>
 <path d="M9352 2494 c-195 -57 -277 -99 -370 -188 -87 -83 -127 -164 -171 -357 -17 -76 -19 -131 -21 -604 -3 -668 -5 -621 25 -650 l24 -25 218 0 c243 0 257 3 268 63 3 18 9 300 13 627 l7 595 24 38 c37 60 105 89 221 94 93 4 96 3 155 -30 38 -21 71 -49 89 -76 l29 -43 7 -526 c9 -592 8 -583 83 -660 59 -60 133 -82 282 -82 130 0 150 9 166 75 11 48 2 943 -12 1120 -14 175 -59 308 -137 401 -94 112 -196 170 -406 231 -70 20 -101 23 -245 22 -146 0 -176 -3 -249 -25z"/>
 <path d="M4265 2503 c-135 -4 -143 -7 -162 -51 -14 -33 -15 -104 -8 -612 7 -558 8 -578 31 -665 46 -179 74 -227 192 -335 145 -133 437 -223 667 -206 152 12 316 61 405 122 27 19 58 34 68 34 11 0 37 -13 59 -29 65 -47 120 -71 222 -98 79 -20 120 -24 231 -24 142 0 247 20 383 71 141 53 316 209 357 318 63 166 62 151 63 820 l2 614 -25 20 c-23 19 -35 20 -160 15 -74 -3 -153 -11 -174 -18 -56 -19 -129 -94 -145 -149 -10 -33 -15 -189 -20 -565 l-7 -520 -26 -41 c-61 -94 -136 -129 -263 -122 -107 7 -177 42 -214 108 l-24 43 -7 606 c-7 629 -8 643 -49 656 -29 9 -402 10 -429 1 -40 -13 -46 -41 -49 -231 -2 -99 -8 -369 -12 -601 l-9 -421 -26 -51 c-22 -44 -34 -55 -91 -83 -60 -30 -70 -31 -148 -27 -65 3 -97 10 -139 31 -116 57 -117 60 -118 492 -1 416 -14 820 -29 857 -5 14 -18 29 -28 31 -28 8 -207 14 -318 10z"/>
 <path d="M12472 2501 c-170 -7 -175 -9 -188 -77 -19 -100 82 -415 177 -556 50 -74 249 -281 331 -345 32 -24 113 -78 180 -119 220 -135 367 -258 438 -367 l40 -62 0 -121 c0 -151 -11 -172 -115 -224 -67 -34 -73 -35 -185 -35 -110 0 -117 2 -170 31 -49 28 -60 41 -98 112 -30 57 -47 104 -57 163 -8 46 -21 90 -29 97 -9 10 -53 18 -119 25 -85 7 -120 6 -183 -7 -89 -18 -116 -38 -138 -104 -32 -92 -9 -237 59 -376 92 -189 244 -304 508 -384 117 -35 128 -36 267 -36 141 0 148 2 260 38 210 70 325 145 415 270 100 140 135 257 135 451 0 260 -46 360 -264 583 -110 114 -188 174 -416 325 -164 108 -290 207 -290 228 0 5 161 9 393 10 215 0 423 3 461 8 105 11 106 13 106 236 0 165 -2 185 -19 206 l-19 24 -394 6 c-464 8 -873 7 -1086 0z"/>
 <path d="M15154 2490 c-12 -4 -25 -17 -30 -27 -4 -10 -10 -120 -12 -245 l-4 -227 -473 -3 c-440 -3 -476 -4 -492 -21 -16 -16 -18 -39 -18 -220 l0 -202 86 -130 c110 -167 231 -356 642 -1004 131 -205 172 -253 232 -270 76 -21 246 -19 325 4 52 15 75 29 117 70 93 94 108 187 123 755 5 201 10 413 10 473 l0 107 109 0 c86 0 113 3 125 16 13 13 16 46 16 204 0 158 -3 191 -16 204 -12 13 -39 16 -129 16 l-114 0 -3 236 c-3 234 -3 236 -27 255 -21 17 -41 19 -235 18 -116 0 -220 -4 -232 -9z m-24 -1347 c0 -246 -4 -413 -9 -408 -5 6 -82 126 -171 269 -89 142 -202 321 -251 397 -49 77 -89 141 -89 144 0 7 102 11 318 13 l202 2 0 -417z"/>
 </g>

</svg>