<svg xmlns="http://www.w3.org/2000/svg" width="253.858" height="247.423" viewBox="0 0 253.858 247.423">
  <defs>
    <style>
      .cls-1 {
        fill: #171e30;
      }

      .cls-2 {
        fill: #0dffa4;
      }

      .cls-3 {
        fill: #ddd;
      }
    </style>
  </defs>
  <g id="Group_11145" data-name="Group 11145" transform="translate(-498 -4293)">
    <path id="Path_14865" data-name="Path 14865" class="cls-1" d="M45.281,284.391c-26.328-5.948-43.14-32.831-36.637-58.446,5.155-20.063,20.46-33.624,41.237-36.479l7.216-.952L72.323,173.21,87.629,157.9l-2.141-2.141-2.22-2.141-2.22,2.141a7.763,7.763,0,0,1-3.013,2.141c-.4,0-2.141-1.824-3.886-3.965l-3.172-3.965L60.666,160.284c-11.182,11.1-14.592,13.243-22.2,14.036a24.348,24.348,0,0,1-14.829-3.41c-1.586-1.031-6.661-5.71-11.419-10.389C1.586,149.816,0,146.8,0,137.286c0-9.754,1.19-11.737,14.116-24.742L24.9,101.6h3.886c3.727,0,3.886-.079,3.331-1.745a22.7,22.7,0,0,1,0-13.4c1.19-3.489,2.855-5.789,9.437-12.53,8.961-9.2,13.64-11.975,20.143-11.975,3.331,0,4.758-.555,10.547-4.441C84.536,49.261,100.4,42.6,114.036,39.983c3.41-.634,13.085-1.348,21.808-1.586l15.622-.4V48.309c0,8.723-.317,11.182-1.665,14.909-3.489,9.2-11.34,14.909-22.363,16.1-4.679.555-6.741,1.19-8.8,2.776-3.965,2.934-6.186,6.5-6.582,10.309l-.4,3.251L119.27,102c4.2,3.489,7.613,6.661,7.613,7.058a7.763,7.763,0,0,1-2.141,3.013l-2.141,2.22,2.141,2.22,2.141,2.141L138.3,107.231l11.34-11.34.476-4.52c2.855-26.566,22.918-45.281,48.453-45.281,9.833,0,22.442,4.6,30.69,11.261,7.058,5.71,13.243,15.7,15.86,25.852,5.868,22.918-7.534,48.295-29.5,56.146-4.362,1.507-13.561,3.489-16.415,3.489-1.665,0-4.2,2.062-11.657,9.516l-9.516,9.516,36.241,36.32C241.712,225.628,250.911,235.3,252.1,238c2.458,5.393,2.3,16.178-.238,21.253-1.824,3.648-14.909,17.605-20.46,21.808-3.965,3.093-10.389,4.758-15.781,4.282-9.2-.793-9.278-.872-48.453-40.047l-36.32-36.241-13.4,13.4-13.323,13.323-.555,5.075c-2.062,20.063-15.147,36.558-33.545,42.426C63.124,285.422,52.1,285.977,45.281,284.391Z" transform="translate(498 4255)"/>
    <path id="Path_14866" data-name="Path 14866" class="cls-2" d="M238.831,450.48,249.3,440.012v-3.806c0-3.41-.4-4.2-3.648-7.692-3.569-3.806-3.886-3.965-8.168-3.965h-4.441l-10.389,10.389-10.468,10.389-1.031-3.013c-.634-1.745-1.11-6.186-1.11-10.23,0-6.344.317-7.692,2.538-12.371,5.948-12.688,17.526-19.746,30.69-18.715l5.63.4,24.187-24.108,24.187-24.108L283.4,339.3l-13.8-13.8-1.665,1.507c-2.141,1.983-2.458,1.983-5.63-.4-5.948-4.52-13.243-6.344-17.129-4.282-2.22,1.19-3.806,5.472-3.806,10.468V337l-8.247,8.089c-11.023,10.944-11.816,10.864-23.632-1.19-10.23-10.547-10.23-12.212.4-23l7.216-7.375h5c7.93,0,9.833-1.507,11.34-9.12a37.23,37.23,0,0,1,2.538-7.772l1.586-3.093-2.141-2.22c-1.586-1.665-2.062-2.776-1.745-4.124.634-2.379,11.816-13.323,13.64-13.323a8.326,8.326,0,0,1,3.648,1.665l2.379,1.665,4.124-3.569a109.923,109.923,0,0,1,33.862-18.795c10.626-3.569,29.342-6.106,29.342-3.965,0,2.062-2.458,5.393-4.52,6.186a33.654,33.654,0,0,1-6.979,1.269c-12.292,1.269-23.394,10.626-26.883,22.6-2.458,8.247-1.348,15.305,3.251,20.619,3.093,3.648,3.172,4.124,1.031,6.027-1.665,1.507-1.586,1.586,12.054,15.226,7.534,7.534,14.433,14.435,14.909,14.435s9.12-9.439,19.746-20.066l19.27-19.27.159-7.851c.079-6.979.4-8.406,2.617-13.164,3.41-7.216,8.009-11.975,14.829-15.305a30.958,30.958,0,0,1,20.3-2.855c7.772,1.665,7.851,1.427-3.727,12.688l-10.547,10.151v3.886c0,3.727.238,4.2,4.2,8.089,3.886,3.806,4.441,4.124,7.93,4.124h3.806l10.23-10.468c11.34-11.657,11.1-11.578,12.768-3.806,4.282,20.46-13.006,39.73-33.783,37.827l-4.837-.476-19.746,19.746c-12.133,12.133-20.367,19.762-20.367,19.762l2.319,1.4a37.487,37.487,0,0,0,5.347,2.883c6.775,2.9,6.437,2.995,43.074,39.632,38.858,38.858,38.144,38.065,35.765,42.823-1.269,2.538-13.4,14.75-15.94,16.1-5.155,2.7-3.886,3.727-43.22-35.527-35.289-35.289-36.8-36.875-38.779-41.871-1.11-2.855-3.251-7.058-3.251-7.058l-1.165-2.186s-5.276,5.535-24.053,24.311l-24.028,24.029.4,6.027a31.17,31.17,0,0,1-29.262,33.069C240.259,464.041,233.042,456.269,238.831,450.48Z" transform="translate(312.142 4059.728)"/>
    <path id="Path_14867" data-name="Path 14867" class="cls-3" d="M328.553,1659.913c-2.3-.555-4.441-1.269-4.679-1.586-.317-.317,4.124-5.234,9.913-11.023l10.468-10.468v-3.807c0-3.41-.4-4.2-3.648-7.692-3.569-3.806-3.886-3.965-8.168-3.965H328l-10.389,10.388-10.468,10.389-1.031-3.013c-.634-1.745-1.11-6.186-1.11-10.23,0-6.344.317-7.692,2.538-12.371,5.948-12.688,17.526-19.746,30.69-18.715l5.63.4,24.187-24.108L392.232,1550l11.737,11.737,11.657,11.657L391.518,1597.5l-24.108,24.108.4,6.027a31.17,31.17,0,0,1-29.262,33.069A38.985,38.985,0,0,1,328.553,1659.913Z" transform="translate(217.187 2862.905)"/>
    <path id="Path_14868" data-name="Path 14868" class="cls-3" d="M1616.5,442.466l-11.379-11.674,19.627-19.571,19.667-19.667.159-7.93c.079-7.375.317-8.247,3.013-13.878a30.445,30.445,0,0,1,15.226-14.988,32.6,32.6,0,0,1,19.508-2.379c7.772,1.665,7.851,1.427-3.727,12.688l-10.547,10.151V379.1c0,3.727.238,4.2,4.2,8.089,3.886,3.806,4.441,4.124,7.93,4.124h3.806l10.23-10.468c11.34-11.657,11.1-11.578,12.767-3.806,4.282,20.46-13.005,39.73-33.783,37.827l-4.837-.476-19.826,19.825c-10.864,10.864-19.922,19.768-20.16,19.768S1622.843,448.81,1616.5,442.466Z" transform="translate(-979.721 3966.077)"/>
    <path id="Path_14869" data-name="Path 14869" class="cls-3" d="M217.4,351.67C213.6,349.291,202.1,337,201.544,334.7c-1.031-3.806.4-6.344,7.772-13.8l7.216-7.375h5c7.93,0,9.833-1.507,11.34-9.12,1.507-7.534,1.344-10.053,12.526-21.71,13.323-13.957,28.473-22.223,45.364-27.853,10.626-3.569,29.342-6.106,29.342-3.965,0,2.062-2.458,5.393-4.52,6.186a33.655,33.655,0,0,1-6.979,1.269c-12.292,1.269-23.394,10.626-26.883,22.6-2.458,8.247-1.348,15.305,3.251,20.619,1.427,1.745,3.843,4.181,3.843,4.5,0,.952-23.208,23.54-23.208,23.54s-2.442-1.868-3.87-2.979c-5.948-4.52-13.243-6.344-17.129-4.282-2.22,1.19-3.806,5.472-3.806,10.468V337l-8.247,8.089C223.59,353.891,222.083,354.6,217.4,351.67Z" transform="translate(312.713 4059.728)"/>
  </g>
</svg>
