<svg xmlns="http://www.w3.org/2000/svg" width="245.771" height="248.134" viewBox="0 0 245.771 248.134">
  <defs>
    <style>
      .cls-1 {
        fill: #171e30;
      }

      .cls-2 {
        fill: #13a26c;
      }

      .cls-3 {
        fill: #fff;
      }

      .cls-4 {
        fill: #0dffa4;
      }

      .cls-5 {
        fill: #767676;
      }

      .cls-6 {
        fill: #287b5c;
      }

      .cls-7 {
        fill: #84e9ff;
      }

      .cls-8 {
        fill: #31d2f6;
      }

      .cls-9 {
        fill: #ddd;
      }
    </style>
  </defs>
  <g id="Group_11146" data-name="Group 11146" transform="translate(-502 -4705)">
    <path id="Path_14817" data-name="Path 14817" class="cls-1" d="M40,237.172h7.877v-74.9H40l14.052-35.384h58.892l2.915-2.993c2.6-2.678,2.915-3.387,2.915-7.09v-4.1H103.018V89.158l29.54-29.54C148.864,43.313,162.413,30,162.728,30s13.943,13.391,30.327,29.776l29.7,29.7v23.238H207v4.175c0,3.781.236,4.411,2.993,7.09l2.993,2.915h59.472l13.314,35.248h-7.877v75.034h7.877v40.962H40Z" transform="translate(462 4675)"/>
    <path id="Path_14819" data-name="Path 14819" class="cls-2" d="M250,529.415v-3.939l31.745-.158,31.667-.236-27.728-.158-27.807-.236v-94.1c-5.514.356-5.295-.136-5.295-.53,0-.473,2.133-3.919,7.646-14.868H320.9V411.02c0-3.939.776-3.891,4.478-7.593l3.384-3.334.015-16.564v-15.6H313.412l21.5-21.426L356.343,325l21.426,21.5,21.5,21.426H383.914v15.6l-1.226,16.609,3.9,2.92c3.7,3.7,3.081,3.9,3.081,7.836l1.041,4.435,32.436-.134h31.273l3.781,7.483c2.048,4.1,3.7,7.641,3.7,7.877s-1.734,0-7.248,0l.158,47.264v46.87L427,524.925l-27.728.158,31.745.236,31.667.158v7.877H250Zm126.036-51.6V446.7H336.65v62.23h39.386Zm-86.808-15.6,15.518-.236-15.755.079H273.238v15.991l-.079,15.912.236-15.755.236-15.755Zm142.185-.315c-4.49-.158-11.737-.158-16.148,0-4.49.079-.91-1.063,7.992-1.063S435.825,461.986,431.414,461.907Z" transform="translate(268.542 4403.238)"/>
    <path id="Path_14820" data-name="Path 14820" class="cls-3" d="M250,529.415v-5h70.738V478.056l.158-47.106H285.842c-23.317,0-31.509-.031-31.509-.583a29.372,29.372,0,0,1,2.832-7.964l6.413-7.207H320.9v-3.781c0-3.466.315-4.1,3.939-7.641l3.939-3.86V367.931H313.412l21.5-21.426L356.343,325l21.426,21.5,21.5,21.426H383.914v31.982l3.545,3.466c3.308,3.23,3.545,3.781,3.545,7.641v4.175h63.412l3.781,7.483c2.048,4.1,3.7,7.641,3.7,7.877s-15.755.394-35.054.394H391.791v93.467h70.9v8.937H250Zm126.036-51.6V446.7H336.65v62.23h39.386Z" transform="translate(268.542 4403.238)"/>
    <path id="Path_14821" data-name="Path 14821" class="cls-4" d="M322.23,529.494v-3.939l4.316,1.492,3.4-.646V478.056l.158-47.106H295.054c-23.317,0-31.509-.581-31.509-1.133,0-.473,4.927-3.331,6.9-7.191v-5.732l28.158-1.7h31.509v-3.781c0-3.466.315-4.1,3.939-7.641l3.939-3.86V367.931H322.624l21.5-21.426L365.556,325l21.426,21.5,21.5,21.426H393.126v31.982l3.545,3.466c3.308,3.23,4.352,3.691,4.352,7.551v4.452l30.939-.187h31.667l3.781,7.483c2.048,4.1,3.7,7.641,3.7,7.877s-15.755.394-35.054.394l-35.035-.076L401,478.213v48.834h3.691l4.186-.646v6.952H322.23Zm63.018-51.675V446.7H345.862v62.23h39.386Z" transform="translate(259.33 4403.238)"/>
    <path id="Path_14823" data-name="Path 14823" class="cls-5" d="M550,2085.754V2070h31.509v31.509H550Z" transform="translate(-7.826 2795.696)"/>
    <path id="Path_14824" data-name="Path 14824" class="cls-1" d="M1450,1981.816V1970h23.632v23.632H1450Z" transform="translate(-836.931 2887.819)"/>
    <path id="Path_14829" data-name="Path 14829" class="cls-6" d="M1253.939,1678.869l3.939-8.868h39.386l3.939,8.868,3.939,8.868H1250Z" transform="translate(-652.685 3164.187)"/>
    <path id="Path_14830" data-name="Path 14830" class="cls-6" d="M260,1490.559c0-.312,1.977-5.281,7.891-20.558h63.237v20.786H295.564C279.782,1490.786,260,1490.619,260,1490.559Z" transform="translate(258.311 3345.619)"/>
    <path id="Path_14831" data-name="Path 14831" class="cls-6" d="M2050,1480.393V1470h63.772c5.8,15.277,7.406,20.474,7.406,20.785s-15.378,0-35.191,0H2050Z" transform="translate(-1389.667 3345.619)"/>
    <path id="Path_14833" data-name="Path 14833" class="cls-6" d="M1087.283,347.225,1109.426,325l22.142,22.225,23.3,23.126h-18.112l-27.71-27.942-27.456,27.956H1063.9Z" transform="translate(-484.258 4401.238)"/>
    <path id="Path_14834" data-name="Path 14834" class="cls-7" d="M550,2086.265V2070h32.448l-.162,16.1-.243,16.021H550Z" transform="translate(-8.257 2795.135)"/>
    <path id="Path_14835" data-name="Path 14835" class="cls-8" d="M2250,2085.754V2070h31.509v31.509H2250Z" transform="translate(-1573.912 2795.697)"/>
    <path id="Path_14836" data-name="Path 14836" class="cls-7" d="M1450,1970h23.711v23.711H1450Z" transform="translate(-836.93 2889.819)"/>
    <path id="Path_14837" data-name="Path 14837" class="cls-9" d="M1050,2690.118l8.078-.023v-10.036h7.752V2670h55.407v10.059h7.915v10.059h7.915v9.054H1050Z" transform="translate(-468.858 2237.523)"/>
    <path id="Path_14838" data-name="Path 14838" class="cls-1" d="M1366.84,809.675c-6.223-1.575-10.713-5.514-13.628-11.816a18.93,18.93,0,0,1,6.3-22.923c11.343-8.271,26.861-2.6,30.564,11.028,2.993,11.028-5.357,22.765-17.015,23.947A22.177,22.177,0,0,1,1366.84,809.675Zm16.148-18.984v-3.939h-7.877v-7.877h-7.877v15.755h15.755Z" transform="translate(-746.287 3992.294)"/>
    <path id="Path_14839" data-name="Path 14839" class="cls-7" d="M550,2086.265V2070h32.448l-.162,16.1-.243,16.021H550Z" transform="translate(125.743 2795.135)"/>
  </g>
</svg>
